<svg xmlns="http://www.w3.org/2000/svg" viewBox="0 0 1200 900" width="1200" height="900">
  <defs>
    <linearGradient id="bg2" x1="0" y1="0" x2="0.2" y2="1">
      <stop offset="0" stop-color="#1a0d06"/>
      <stop offset="0.6" stop-color="#0d0805"/>
      <stop offset="1" stop-color="#070608"/>
    </linearGradient>
    <radialGradient id="fire" cx="0.5" cy="0.92" r="0.7">
      <stop offset="0" stop-color="#ffd9a8" stop-opacity="0.9"/>
      <stop offset="0.25" stop-color="#ff8a2b" stop-opacity="0.7"/>
      <stop offset="0.6" stop-color="#f2480c" stop-opacity="0.3"/>
      <stop offset="1" stop-color="#f2480c" stop-opacity="0"/>
    </radialGradient>
  </defs>
  <rect width="1200" height="900" fill="url(#bg2)"/>
  <ellipse cx="600" cy="900" rx="520" ry="360" fill="url(#fire)"/>
  <circle cx="537" cy="624" r="1.7" fill="#ff9a3c" opacity="0.54"/><circle cx="184" cy="265" r="3.7" fill="#ff9a3c" opacity="0.64"/><circle cx="1041" cy="837" r="2.0" fill="#ff9a3c" opacity="0.39"/><circle cx="515" cy="689" r="2.0" fill="#ff9a3c" opacity="0.63"/><circle cx="369" cy="678" r="3.6" fill="#ff9a3c" opacity="0.56"/><circle cx="989" cy="510" r="2.9" fill="#ff9a3c" opacity="0.33"/><circle cx="49" cy="265" r="3.8" fill="#ff9a3c" opacity="0.89"/><circle cx="377" cy="536" r="3.3" fill="#ff9a3c" opacity="0.79"/><circle cx="627" cy="560" r="4.4" fill="#ff9a3c" opacity="0.51"/><circle cx="1138" cy="352" r="2.3" fill="#ff9a3c" opacity="0.53"/><circle cx="1007" cy="838" r="1.8" fill="#ff9a3c" opacity="0.54"/><circle cx="753" cy="788" r="1.9" fill="#ff9a3c" opacity="0.73"/><circle cx="983" cy="750" r="3.3" fill="#ff9a3c" opacity="0.54"/><circle cx="660" cy="784" r="1.3" fill="#ff9a3c" opacity="0.79"/><circle cx="968" cy="394" r="1.2" fill="#ff9a3c" opacity="0.80"/><circle cx="383" cy="660" r="2.3" fill="#ff9a3c" opacity="0.74"/><circle cx="134" cy="775" r="4.1" fill="#ff9a3c" opacity="0.76"/><circle cx="873" cy="377" r="1.2" fill="#ff9a3c" opacity="0.51"/><circle cx="139" cy="480" r="1.6" fill="#ff9a3c" opacity="0.31"/><circle cx="231" cy="611" r="2.2" fill="#ff9a3c" opacity="0.83"/><circle cx="66" cy="539" r="4.1" fill="#ff9a3c" opacity="0.87"/><circle cx="1051" cy="612" r="3.5" fill="#ff9a3c" opacity="0.86"/><circle cx="550" cy="691" r="1.3" fill="#ff9a3c" opacity="0.82"/><circle cx="547" cy="678" r="1.9" fill="#ff9a3c" opacity="0.47"/><circle cx="318" cy="255" r="3.3" fill="#ff9a3c" opacity="0.39"/><circle cx="691" cy="815" r="3.7" fill="#ff9a3c" opacity="0.52"/><circle cx="718" cy="595" r="3.8" fill="#ff9a3c" opacity="0.32"/><circle cx="1141" cy="409" r="3.3" fill="#ff9a3c" opacity="0.49"/><circle cx="254" cy="784" r="1.4" fill="#ff9a3c" opacity="0.33"/><circle cx="178" cy="689" r="1.6" fill="#ff9a3c" opacity="0.81"/><circle cx="719" cy="274" r="2.4" fill="#ff9a3c" opacity="0.38"/><circle cx="40" cy="397" r="3.6" fill="#ff9a3c" opacity="0.65"/><circle cx="927" cy="762" r="1.3" fill="#ff9a3c" opacity="0.55"/><circle cx="1053" cy="250" r="3.0" fill="#ff9a3c" opacity="0.44"/><circle cx="848" cy="654" r="2.2" fill="#ff9a3c" opacity="0.68"/><circle cx="164" cy="612" r="1.7" fill="#ff9a3c" opacity="0.52"/><circle cx="542" cy="737" r="3.8" fill="#ff9a3c" opacity="0.48"/><circle cx="1078" cy="756" r="3.0" fill="#ff9a3c" opacity="0.82"/><circle cx="1090" cy="640" r="1.5" fill="#ff9a3c" opacity="0.55"/><circle cx="1187" cy="336" r="3.7" fill="#ff9a3c" opacity="0.90"/><circle cx="330" cy="503" r="1.3" fill="#ff9a3c" opacity="0.88"/><circle cx="906" cy="646" r="3.2" fill="#ff9a3c" opacity="0.42"/><circle cx="187" cy="645" r="1.6" fill="#ff9a3c" opacity="0.89"/><circle cx="605" cy="294" r="3.0" fill="#ff9a3c" opacity="0.64"/><circle cx="410" cy="429" r="1.9" fill="#ff9a3c" opacity="0.53"/><circle cx="743" cy="266" r="3.2" fill="#ff9a3c" opacity="0.86"/><circle cx="301" cy="529" r="3.3" fill="#ff9a3c" opacity="0.52"/><circle cx="403" cy="391" r="3.7" fill="#ff9a3c" opacity="0.69"/><circle cx="55" cy="797" r="3.9" fill="#ff9a3c" opacity="0.61"/><circle cx="220" cy="409" r="1.3" fill="#ff9a3c" opacity="0.30"/><circle cx="485" cy="330" r="3.8" fill="#ff9a3c" opacity="0.69"/><circle cx="122" cy="840" r="2.5" fill="#ff9a3c" opacity="0.54"/><circle cx="1162" cy="333" r="2.6" fill="#ff9a3c" opacity="0.40"/><circle cx="256" cy="647" r="1.0" fill="#ff9a3c" opacity="0.34"/><circle cx="545" cy="794" r="1.4" fill="#ff9a3c" opacity="0.45"/><circle cx="325" cy="702" r="2.6" fill="#ff9a3c" opacity="0.61"/><circle cx="515" cy="541" r="1.3" fill="#ff9a3c" opacity="0.63"/><circle cx="923" cy="459" r="2.8" fill="#ff9a3c" opacity="0.73"/><circle cx="911" cy="715" r="3.6" fill="#ff9a3c" opacity="0.73"/><circle cx="864" cy="414" r="3.3" fill="#ff9a3c" opacity="0.76"/><circle cx="857" cy="835" r="2.2" fill="#ff9a3c" opacity="0.59"/><circle cx="118" cy="773" r="1.0" fill="#ff9a3c" opacity="0.57"/><circle cx="901" cy="664" r="2.5" fill="#ff9a3c" opacity="0.54"/><circle cx="1146" cy="523" r="1.9" fill="#ff9a3c" opacity="0.43"/><circle cx="1148" cy="675" r="4.1" fill="#ff9a3c" opacity="0.51"/><circle cx="228" cy="492" r="1.1" fill="#ff9a3c" opacity="0.37"/><circle cx="191" cy="521" r="4.1" fill="#ff9a3c" opacity="0.65"/><circle cx="1" cy="822" r="1.3" fill="#ff9a3c" opacity="0.36"/><circle cx="843" cy="298" r="1.6" fill="#ff9a3c" opacity="0.64"/><circle cx="1191" cy="630" r="4.3" fill="#ff9a3c" opacity="0.44"/>
  <circle cx="967" cy="337" r="2.3" fill="#ffe2bd" opacity="0.50"/><circle cx="803" cy="607" r="2.9" fill="#ffe2bd" opacity="0.50"/><circle cx="116" cy="740" r="2.9" fill="#ffe2bd" opacity="0.47"/><circle cx="712" cy="686" r="3.1" fill="#ffe2bd" opacity="0.47"/><circle cx="356" cy="503" r="2.1" fill="#ffe2bd" opacity="0.70"/><circle cx="231" cy="296" r="1.9" fill="#ffe2bd" opacity="0.49"/><circle cx="13" cy="545" r="1.8" fill="#ffe2bd" opacity="0.62"/><circle cx="930" cy="444" r="1.1" fill="#ffe2bd" opacity="0.62"/><circle cx="35" cy="829" r="1.6" fill="#ffe2bd" opacity="0.76"/><circle cx="869" cy="316" r="4.3" fill="#ffe2bd" opacity="0.74"/><circle cx="927" cy="830" r="2.4" fill="#ffe2bd" opacity="0.64"/><circle cx="328" cy="341" r="4.2" fill="#ffe2bd" opacity="0.46"/><circle cx="480" cy="398" r="2.3" fill="#ffe2bd" opacity="0.64"/><circle cx="1146" cy="259" r="1.2" fill="#ffe2bd" opacity="0.58"/><circle cx="710" cy="430" r="1.7" fill="#ffe2bd" opacity="0.62"/><circle cx="847" cy="590" r="1.8" fill="#ffe2bd" opacity="0.72"/><circle cx="1187" cy="334" r="3.4" fill="#ffe2bd" opacity="0.83"/><circle cx="781" cy="297" r="3.3" fill="#ffe2bd" opacity="0.41"/><circle cx="370" cy="694" r="1.6" fill="#ffe2bd" opacity="0.77"/><circle cx="650" cy="252" r="4.3" fill="#ffe2bd" opacity="0.59"/><circle cx="141" cy="341" r="4.4" fill="#ffe2bd" opacity="0.85"/><circle cx="1048" cy="509" r="3.9" fill="#ffe2bd" opacity="0.61"/><circle cx="336" cy="416" r="2.7" fill="#ffe2bd" opacity="0.86"/><circle cx="789" cy="364" r="3.8" fill="#ffe2bd" opacity="0.54"/><circle cx="82" cy="436" r="4.2" fill="#ffe2bd" opacity="0.62"/><circle cx="1044" cy="623" r="4.4" fill="#ffe2bd" opacity="0.84"/><circle cx="1127" cy="764" r="3.9" fill="#ffe2bd" opacity="0.47"/><circle cx="671" cy="273" r="1.2" fill="#ffe2bd" opacity="0.61"/>
  <text x="600" y="430" text-anchor="middle" font-family="Georgia, serif"
    font-size="60" fill="#f6ead6" opacity="0.95">Mobil knivslipning</text>
  <text x="600" y="486" text-anchor="middle" font-family="Arial, sans-serif"
    font-size="26" fill="#ffb98a" opacity="0.85">Vi kommer till dig – platshållarbild</text>
</svg>