<svg xmlns="http://www.w3.org/2000/svg" viewBox="0 0 1200 900" width="1200" height="900">
  <defs>
    <linearGradient id="bg2" x1="0" y1="0" x2="0.2" y2="1">
      <stop offset="0" stop-color="#1a0d06"/>
      <stop offset="0.6" stop-color="#0d0805"/>
      <stop offset="1" stop-color="#070608"/>
    </linearGradient>
    <radialGradient id="fire" cx="0.5" cy="0.92" r="0.7">
      <stop offset="0" stop-color="#ffd9a8" stop-opacity="0.9"/>
      <stop offset="0.25" stop-color="#ff8a2b" stop-opacity="0.7"/>
      <stop offset="0.6" stop-color="#f2480c" stop-opacity="0.3"/>
      <stop offset="1" stop-color="#f2480c" stop-opacity="0"/>
    </radialGradient>
  </defs>
  <rect width="1200" height="900" fill="url(#bg2)"/>
  <ellipse cx="600" cy="900" rx="520" ry="360" fill="url(#fire)"/>
  <circle cx="636" cy="488" r="4.2" fill="#ff9a3c" opacity="0.58"/><circle cx="467" cy="592" r="3.1" fill="#ff9a3c" opacity="0.74"/><circle cx="471" cy="486" r="4.0" fill="#ff9a3c" opacity="0.78"/><circle cx="278" cy="362" r="1.7" fill="#ff9a3c" opacity="0.62"/><circle cx="138" cy="259" r="3.6" fill="#ff9a3c" opacity="0.34"/><circle cx="794" cy="390" r="2.6" fill="#ff9a3c" opacity="0.63"/><circle cx="541" cy="681" r="1.4" fill="#ff9a3c" opacity="0.78"/><circle cx="298" cy="703" r="3.5" fill="#ff9a3c" opacity="0.58"/><circle cx="1072" cy="605" r="3.8" fill="#ff9a3c" opacity="0.87"/><circle cx="1027" cy="644" r="2.2" fill="#ff9a3c" opacity="0.85"/><circle cx="546" cy="526" r="1.7" fill="#ff9a3c" opacity="0.67"/><circle cx="906" cy="331" r="2.9" fill="#ff9a3c" opacity="0.68"/><circle cx="134" cy="652" r="2.8" fill="#ff9a3c" opacity="0.64"/><circle cx="484" cy="726" r="4.1" fill="#ff9a3c" opacity="0.40"/><circle cx="1095" cy="568" r="2.3" fill="#ff9a3c" opacity="0.47"/><circle cx="1064" cy="504" r="2.1" fill="#ff9a3c" opacity="0.53"/><circle cx="910" cy="504" r="2.5" fill="#ff9a3c" opacity="0.77"/><circle cx="40" cy="516" r="4.2" fill="#ff9a3c" opacity="0.63"/><circle cx="1017" cy="600" r="2.4" fill="#ff9a3c" opacity="0.33"/><circle cx="225" cy="260" r="2.7" fill="#ff9a3c" opacity="0.39"/><circle cx="940" cy="576" r="4.1" fill="#ff9a3c" opacity="0.38"/><circle cx="791" cy="741" r="2.7" fill="#ff9a3c" opacity="0.45"/><circle cx="430" cy="393" r="3.5" fill="#ff9a3c" opacity="0.85"/><circle cx="996" cy="546" r="4.3" fill="#ff9a3c" opacity="0.70"/><circle cx="1188" cy="727" r="1.6" fill="#ff9a3c" opacity="0.67"/><circle cx="1123" cy="705" r="3.8" fill="#ff9a3c" opacity="0.76"/><circle cx="1008" cy="828" r="3.5" fill="#ff9a3c" opacity="0.80"/><circle cx="607" cy="357" r="1.6" fill="#ff9a3c" opacity="0.81"/><circle cx="705" cy="394" r="2.5" fill="#ff9a3c" opacity="0.51"/><circle cx="575" cy="621" r="4.1" fill="#ff9a3c" opacity="0.48"/><circle cx="1048" cy="631" r="1.4" fill="#ff9a3c" opacity="0.66"/><circle cx="1175" cy="461" r="1.7" fill="#ff9a3c" opacity="0.51"/><circle cx="498" cy="325" r="1.6" fill="#ff9a3c" opacity="0.74"/><circle cx="911" cy="750" r="3.5" fill="#ff9a3c" opacity="0.62"/><circle cx="935" cy="705" r="4.0" fill="#ff9a3c" opacity="0.55"/><circle cx="376" cy="340" r="1.6" fill="#ff9a3c" opacity="0.77"/><circle cx="997" cy="513" r="3.0" fill="#ff9a3c" opacity="0.49"/><circle cx="784" cy="328" r="1.1" fill="#ff9a3c" opacity="0.44"/><circle cx="1010" cy="466" r="3.0" fill="#ff9a3c" opacity="0.38"/><circle cx="905" cy="320" r="2.5" fill="#ff9a3c" opacity="0.67"/><circle cx="321" cy="328" r="2.3" fill="#ff9a3c" opacity="0.57"/><circle cx="799" cy="503" r="1.2" fill="#ff9a3c" opacity="0.57"/><circle cx="235" cy="573" r="4.1" fill="#ff9a3c" opacity="0.36"/><circle cx="347" cy="506" r="3.0" fill="#ff9a3c" opacity="0.74"/><circle cx="544" cy="252" r="2.0" fill="#ff9a3c" opacity="0.54"/><circle cx="987" cy="469" r="3.3" fill="#ff9a3c" opacity="0.57"/><circle cx="463" cy="662" r="2.0" fill="#ff9a3c" opacity="0.76"/><circle cx="1044" cy="711" r="4.2" fill="#ff9a3c" opacity="0.68"/><circle cx="362" cy="410" r="2.4" fill="#ff9a3c" opacity="0.48"/><circle cx="267" cy="595" r="1.7" fill="#ff9a3c" opacity="0.42"/><circle cx="700" cy="482" r="3.2" fill="#ff9a3c" opacity="0.80"/><circle cx="359" cy="795" r="3.7" fill="#ff9a3c" opacity="0.51"/><circle cx="560" cy="707" r="4.3" fill="#ff9a3c" opacity="0.73"/><circle cx="312" cy="563" r="1.3" fill="#ff9a3c" opacity="0.70"/><circle cx="577" cy="825" r="2.5" fill="#ff9a3c" opacity="0.45"/><circle cx="942" cy="796" r="1.8" fill="#ff9a3c" opacity="0.88"/><circle cx="679" cy="756" r="4.3" fill="#ff9a3c" opacity="0.78"/><circle cx="619" cy="300" r="1.1" fill="#ff9a3c" opacity="0.69"/><circle cx="1013" cy="663" r="3.4" fill="#ff9a3c" opacity="0.68"/><circle cx="202" cy="260" r="4.0" fill="#ff9a3c" opacity="0.84"/><circle cx="82" cy="818" r="2.0" fill="#ff9a3c" opacity="0.45"/><circle cx="372" cy="707" r="4.5" fill="#ff9a3c" opacity="0.52"/><circle cx="880" cy="675" r="2.9" fill="#ff9a3c" opacity="0.67"/><circle cx="968" cy="381" r="3.9" fill="#ff9a3c" opacity="0.72"/><circle cx="1021" cy="730" r="3.9" fill="#ff9a3c" opacity="0.80"/><circle cx="1114" cy="601" r="3.1" fill="#ff9a3c" opacity="0.68"/><circle cx="475" cy="589" r="2.2" fill="#ff9a3c" opacity="0.71"/><circle cx="158" cy="530" r="4.0" fill="#ff9a3c" opacity="0.73"/><circle cx="503" cy="439" r="3.7" fill="#ff9a3c" opacity="0.67"/><circle cx="606" cy="641" r="2.7" fill="#ff9a3c" opacity="0.80"/>
  <circle cx="1067" cy="802" r="1.2" fill="#ffe2bd" opacity="0.54"/><circle cx="1087" cy="333" r="2.3" fill="#ffe2bd" opacity="0.60"/><circle cx="746" cy="388" r="1.4" fill="#ffe2bd" opacity="0.86"/><circle cx="475" cy="360" r="2.7" fill="#ffe2bd" opacity="0.47"/><circle cx="124" cy="684" r="2.1" fill="#ffe2bd" opacity="0.48"/><circle cx="36" cy="776" r="1.7" fill="#ffe2bd" opacity="0.80"/><circle cx="505" cy="362" r="2.9" fill="#ffe2bd" opacity="0.51"/><circle cx="851" cy="612" r="1.3" fill="#ffe2bd" opacity="0.40"/><circle cx="480" cy="274" r="4.5" fill="#ffe2bd" opacity="0.52"/><circle cx="757" cy="608" r="4.2" fill="#ffe2bd" opacity="0.46"/><circle cx="466" cy="517" r="2.4" fill="#ffe2bd" opacity="0.77"/><circle cx="481" cy="484" r="1.7" fill="#ffe2bd" opacity="0.41"/><circle cx="832" cy="299" r="1.8" fill="#ffe2bd" opacity="0.73"/><circle cx="970" cy="801" r="4.1" fill="#ffe2bd" opacity="0.79"/><circle cx="837" cy="604" r="2.8" fill="#ffe2bd" opacity="0.88"/><circle cx="328" cy="434" r="1.6" fill="#ffe2bd" opacity="0.51"/><circle cx="763" cy="662" r="1.8" fill="#ffe2bd" opacity="0.84"/><circle cx="1148" cy="436" r="2.9" fill="#ffe2bd" opacity="0.53"/><circle cx="47" cy="814" r="2.4" fill="#ffe2bd" opacity="0.79"/><circle cx="645" cy="501" r="1.3" fill="#ffe2bd" opacity="0.75"/><circle cx="1016" cy="379" r="4.4" fill="#ffe2bd" opacity="0.36"/><circle cx="788" cy="639" r="3.1" fill="#ffe2bd" opacity="0.79"/><circle cx="216" cy="718" r="1.4" fill="#ffe2bd" opacity="0.89"/><circle cx="38" cy="833" r="2.7" fill="#ffe2bd" opacity="0.77"/><circle cx="952" cy="307" r="2.6" fill="#ffe2bd" opacity="0.30"/><circle cx="275" cy="513" r="1.0" fill="#ffe2bd" opacity="0.48"/><circle cx="216" cy="398" r="3.6" fill="#ffe2bd" opacity="0.35"/><circle cx="138" cy="821" r="3.0" fill="#ffe2bd" opacity="0.32"/>
  <text x="600" y="430" text-anchor="middle" font-family="Georgia, serif"
    font-size="60" fill="#f6ead6" opacity="0.95">Vår verkstad</text>
  <text x="600" y="486" text-anchor="middle" font-family="Arial, sans-serif"
    font-size="26" fill="#ffb98a" opacity="0.85">Hantverk & precision – platshållarbild</text>
</svg>