<svg xmlns="http://www.w3.org/2000/svg" viewBox="0 0 1200 900" width="1200" height="900">
  <defs>
    <linearGradient id="bg" x1="0" y1="0" x2="0.3" y2="1">
      <stop offset="0" stop-color="#140a05"/>
      <stop offset="0.55" stop-color="#0c0805"/>
      <stop offset="1" stop-color="#080709"/>
    </linearGradient>
    <linearGradient id="steel" x1="0" y1="0" x2="0" y2="1">
      <stop offset="0" stop-color="#eef1f5"/>
      <stop offset="0.5" stop-color="#aab4c0"/>
      <stop offset="1" stop-color="#79838f"/>
    </linearGradient>
    <linearGradient id="hotedge" x1="0" y1="0" x2="1" y2="0">
      <stop offset="0" stop-color="#fff3d6"/>
      <stop offset="0.5" stop-color="#ff8a2b"/>
      <stop offset="1" stop-color="#f2480c"/>
    </linearGradient>
    <radialGradient id="forge" cx="0.5" cy="1" r="0.75">
      <stop offset="0" stop-color="#ff6a1a" stop-opacity="0.5"/>
      <stop offset="0.4" stop-color="#f2480c" stop-opacity="0.22"/>
      <stop offset="1" stop-color="#f2480c" stop-opacity="0"/>
    </radialGradient>
    <radialGradient id="topglow" cx="0.5" cy="0.1" r="0.6">
      <stop offset="0" stop-color="#FF8A2B" stop-opacity="0.22"/>
      <stop offset="1" stop-color="#FF8A2B" stop-opacity="0"/>
    </radialGradient>
    <filter id="soft"><feGaussianBlur stdDeviation="6"/></filter>
  </defs>
  <rect width="1200" height="900" fill="url(#bg)"/>
  <rect width="1200" height="900" fill="url(#forge)"/>
  <rect width="1200" height="900" fill="url(#topglow)"/>
  <circle cx="202" cy="713" r="3.2" fill="#ff9a3c" opacity="0.84"/><circle cx="635" cy="599" r="1.3" fill="#ff9a3c" opacity="0.62"/><circle cx="294" cy="313" r="1.7" fill="#ff9a3c" opacity="0.33"/><circle cx="495" cy="824" r="2.4" fill="#ff9a3c" opacity="0.55"/><circle cx="247" cy="681" r="2.8" fill="#ff9a3c" opacity="0.52"/><circle cx="512" cy="343" r="4.0" fill="#ff9a3c" opacity="0.86"/><circle cx="877" cy="313" r="3.3" fill="#ff9a3c" opacity="0.70"/><circle cx="614" cy="274" r="2.3" fill="#ff9a3c" opacity="0.60"/><circle cx="554" cy="417" r="2.7" fill="#ff9a3c" opacity="0.51"/><circle cx="948" cy="780" r="1.5" fill="#ff9a3c" opacity="0.50"/><circle cx="137" cy="378" r="2.1" fill="#ff9a3c" opacity="0.66"/><circle cx="17" cy="336" r="3.6" fill="#ff9a3c" opacity="0.87"/><circle cx="307" cy="825" r="2.6" fill="#ff9a3c" opacity="0.34"/><circle cx="815" cy="793" r="4.4" fill="#ff9a3c" opacity="0.49"/><circle cx="903" cy="499" r="2.0" fill="#ff9a3c" opacity="0.54"/><circle cx="956" cy="847" r="2.0" fill="#ff9a3c" opacity="0.62"/><circle cx="1049" cy="719" r="1.2" fill="#ff9a3c" opacity="0.50"/><circle cx="410" cy="707" r="3.8" fill="#ff9a3c" opacity="0.52"/><circle cx="93" cy="647" r="2.0" fill="#ff9a3c" opacity="0.55"/><circle cx="438" cy="556" r="1.7" fill="#ff9a3c" opacity="0.49"/><circle cx="541" cy="759" r="4.3" fill="#ff9a3c" opacity="0.62"/><circle cx="920" cy="625" r="1.6" fill="#ff9a3c" opacity="0.53"/><circle cx="983" cy="704" r="1.3" fill="#ff9a3c" opacity="0.86"/><circle cx="893" cy="455" r="2.3" fill="#ff9a3c" opacity="0.62"/><circle cx="635" cy="581" r="2.9" fill="#ff9a3c" opacity="0.35"/><circle cx="1083" cy="364" r="2.4" fill="#ff9a3c" opacity="0.80"/><circle cx="1067" cy="796" r="3.7" fill="#ff9a3c" opacity="0.34"/><circle cx="39" cy="315" r="1.4" fill="#ff9a3c" opacity="0.41"/><circle cx="339" cy="535" r="3.7" fill="#ff9a3c" opacity="0.72"/><circle cx="664" cy="382" r="3.8" fill="#ff9a3c" opacity="0.76"/><circle cx="1132" cy="826" r="2.9" fill="#ff9a3c" opacity="0.52"/><circle cx="751" cy="416" r="4.1" fill="#ff9a3c" opacity="0.42"/><circle cx="483" cy="811" r="1.4" fill="#ff9a3c" opacity="0.50"/><circle cx="1114" cy="715" r="2.7" fill="#ff9a3c" opacity="0.47"/><circle cx="718" cy="409" r="2.4" fill="#ff9a3c" opacity="0.30"/><circle cx="124" cy="686" r="2.4" fill="#ff9a3c" opacity="0.55"/><circle cx="785" cy="382" r="3.1" fill="#ff9a3c" opacity="0.66"/><circle cx="1041" cy="313" r="1.0" fill="#ff9a3c" opacity="0.76"/>
  <circle cx="824" cy="633" r="4.4" fill="#ffd9a8" opacity="0.72"/><circle cx="997" cy="493" r="4.3" fill="#ffd9a8" opacity="0.75"/><circle cx="824" cy="772" r="3.8" fill="#ffd9a8" opacity="0.45"/><circle cx="1046" cy="487" r="2.7" fill="#ffd9a8" opacity="0.52"/><circle cx="1160" cy="762" r="3.7" fill="#ffd9a8" opacity="0.86"/><circle cx="884" cy="567" r="3.4" fill="#ffd9a8" opacity="0.64"/><circle cx="25" cy="652" r="3.6" fill="#ffd9a8" opacity="0.71"/><circle cx="346" cy="675" r="4.2" fill="#ffd9a8" opacity="0.88"/><circle cx="1032" cy="340" r="1.4" fill="#ffd9a8" opacity="0.67"/><circle cx="958" cy="328" r="2.4" fill="#ffd9a8" opacity="0.47"/><circle cx="554" cy="632" r="1.0" fill="#ffd9a8" opacity="0.61"/><circle cx="870" cy="490" r="3.5" fill="#ffd9a8" opacity="0.35"/><circle cx="1048" cy="515" r="1.5" fill="#ffd9a8" opacity="0.81"/><circle cx="184" cy="434" r="3.6" fill="#ffd9a8" opacity="0.45"/>
  
  <g transform="translate(600 460) scale(2.1)">
    
    <path d="M-120 30 L90 -28 Q120 -34 120 -10 Q120 12 92 18 L-110 50 Z"
      fill="url(#steel)" stroke="#E7B765"
      stroke-width="2" />
    <path d="M-120 30 L90 -28 Q120 -34 120 -10"
      fill="none" stroke="#ffffff"
      stroke-width="1.6" opacity="0.95" />
    <rect x="-180" y="20" width="70" height="26" rx="10" fill="#241712" />
    <rect x="-180" y="20" width="70" height="13" rx="10" fill="#3a2a1a" />
  </g>
  <text x="600" y="770" text-anchor="middle" font-family="Georgia, serif"
    font-size="56" fill="#f6ead6" opacity="0.94">Skär som en dröm</text>
  <text x="600" y="824" text-anchor="middle" font-family="Arial, sans-serif"
    font-size="26" fill="#ffb98a" opacity="0.85">Testad egg – platshållarbild</text>
</svg>