<svg xmlns="http://www.w3.org/2000/svg" viewBox="0 0 1200 900" width="1200" height="900">
  <defs>
    <linearGradient id="bg" x1="0" y1="0" x2="0.3" y2="1">
      <stop offset="0" stop-color="#140a05"/>
      <stop offset="0.55" stop-color="#0c0805"/>
      <stop offset="1" stop-color="#080709"/>
    </linearGradient>
    <linearGradient id="steel" x1="0" y1="0" x2="0" y2="1">
      <stop offset="0" stop-color="#eef1f5"/>
      <stop offset="0.5" stop-color="#aab4c0"/>
      <stop offset="1" stop-color="#79838f"/>
    </linearGradient>
    <linearGradient id="hotedge" x1="0" y1="0" x2="1" y2="0">
      <stop offset="0" stop-color="#fff3d6"/>
      <stop offset="0.5" stop-color="#ff8a2b"/>
      <stop offset="1" stop-color="#f2480c"/>
    </linearGradient>
    <radialGradient id="forge" cx="0.5" cy="1" r="0.75">
      <stop offset="0" stop-color="#ff6a1a" stop-opacity="0.12"/>
      <stop offset="0.4" stop-color="#f2480c" stop-opacity="0.06"/>
      <stop offset="1" stop-color="#f2480c" stop-opacity="0"/>
    </radialGradient>
    <radialGradient id="topglow" cx="0.5" cy="0.1" r="0.6">
      <stop offset="0" stop-color="#9aa0a6" stop-opacity="0.22"/>
      <stop offset="1" stop-color="#9aa0a6" stop-opacity="0"/>
    </radialGradient>
    <filter id="soft"><feGaussianBlur stdDeviation="6"/></filter>
  </defs>
  <rect width="1200" height="900" fill="url(#bg)"/>
  <rect width="1200" height="900" fill="url(#forge)"/>
  <rect width="1200" height="900" fill="url(#topglow)"/>
  <circle cx="150" cy="750" r="3.6" fill="#ff9a3c" opacity="0.34"/><circle cx="287" cy="310" r="3.7" fill="#ff9a3c" opacity="0.44"/><circle cx="627" cy="654" r="1.7" fill="#ff9a3c" opacity="0.55"/><circle cx="221" cy="617" r="1.7" fill="#ff9a3c" opacity="0.73"/><circle cx="1010" cy="414" r="3.4" fill="#ff9a3c" opacity="0.49"/><circle cx="90" cy="572" r="2.6" fill="#ff9a3c" opacity="0.31"/><circle cx="781" cy="661" r="2.8" fill="#ff9a3c" opacity="0.57"/><circle cx="488" cy="829" r="2.3" fill="#ff9a3c" opacity="0.33"/><circle cx="976" cy="736" r="1.0" fill="#ff9a3c" opacity="0.58"/><circle cx="229" cy="684" r="2.2" fill="#ff9a3c" opacity="0.86"/>
  <circle cx="772" cy="670" r="1.3" fill="#ffd9a8" opacity="0.81"/><circle cx="649" cy="804" r="3.3" fill="#ffd9a8" opacity="0.56"/><circle cx="1158" cy="513" r="3.8" fill="#ffd9a8" opacity="0.67"/><circle cx="773" cy="279" r="2.0" fill="#ffd9a8" opacity="0.71"/>
  
  <g transform="translate(600 460) scale(2.1)">
    
    <path d="M-120 30 L90 -28 Q120 -34 120 -10 Q120 12 92 18 L-110 50 Z"
      fill="url(#steel)" stroke="#8a8f96"
      stroke-width="1" />
    <path d="M-120 30 L90 -28 Q120 -34 120 -10"
      fill="none" stroke="#7c7c7c"
      stroke-width="4" opacity="0.5" />
    <rect x="-180" y="20" width="70" height="26" rx="10" fill="#241712" />
    <rect x="-180" y="20" width="70" height="13" rx="10" fill="#3a2a1a" />
  </g>
  <text x="600" y="770" text-anchor="middle" font-family="Georgia, serif"
    font-size="56" fill="#f6ead6" opacity="0.94">Brödkniv</text>
  <text x="600" y="824" text-anchor="middle" font-family="Arial, sans-serif"
    font-size="26" fill="#ffb98a" opacity="0.85">Före slipning</text>
</svg>