<svg xmlns="http://www.w3.org/2000/svg" viewBox="0 0 1200 900" width="1200" height="900">
  <defs>
    <linearGradient id="bg" x1="0" y1="0" x2="0.3" y2="1">
      <stop offset="0" stop-color="#140a05"/>
      <stop offset="0.55" stop-color="#0c0805"/>
      <stop offset="1" stop-color="#080709"/>
    </linearGradient>
    <linearGradient id="steel" x1="0" y1="0" x2="0" y2="1">
      <stop offset="0" stop-color="#eef1f5"/>
      <stop offset="0.5" stop-color="#aab4c0"/>
      <stop offset="1" stop-color="#79838f"/>
    </linearGradient>
    <linearGradient id="hotedge" x1="0" y1="0" x2="1" y2="0">
      <stop offset="0" stop-color="#fff3d6"/>
      <stop offset="0.5" stop-color="#ff8a2b"/>
      <stop offset="1" stop-color="#f2480c"/>
    </linearGradient>
    <radialGradient id="forge" cx="0.5" cy="1" r="0.75">
      <stop offset="0" stop-color="#ff6a1a" stop-opacity="0.5"/>
      <stop offset="0.4" stop-color="#f2480c" stop-opacity="0.22"/>
      <stop offset="1" stop-color="#f2480c" stop-opacity="0"/>
    </radialGradient>
    <radialGradient id="topglow" cx="0.5" cy="0.1" r="0.6">
      <stop offset="0" stop-color="#FF8A2B" stop-opacity="0.22"/>
      <stop offset="1" stop-color="#FF8A2B" stop-opacity="0"/>
    </radialGradient>
    <filter id="soft"><feGaussianBlur stdDeviation="6"/></filter>
  </defs>
  <rect width="1200" height="900" fill="url(#bg)"/>
  <rect width="1200" height="900" fill="url(#forge)"/>
  <rect width="1200" height="900" fill="url(#topglow)"/>
  <circle cx="385" cy="796" r="3.1" fill="#ff9a3c" opacity="0.61"/><circle cx="752" cy="849" r="3.2" fill="#ff9a3c" opacity="0.35"/><circle cx="744" cy="330" r="3.5" fill="#ff9a3c" opacity="0.83"/><circle cx="478" cy="808" r="1.7" fill="#ff9a3c" opacity="0.81"/><circle cx="164" cy="831" r="4.2" fill="#ff9a3c" opacity="0.75"/><circle cx="763" cy="260" r="1.7" fill="#ff9a3c" opacity="0.66"/><circle cx="660" cy="797" r="2.0" fill="#ff9a3c" opacity="0.87"/><circle cx="331" cy="324" r="3.1" fill="#ff9a3c" opacity="0.73"/><circle cx="604" cy="834" r="3.3" fill="#ff9a3c" opacity="0.81"/><circle cx="531" cy="564" r="3.1" fill="#ff9a3c" opacity="0.56"/><circle cx="854" cy="328" r="2.3" fill="#ff9a3c" opacity="0.69"/><circle cx="1067" cy="653" r="3.6" fill="#ff9a3c" opacity="0.47"/><circle cx="891" cy="508" r="3.6" fill="#ff9a3c" opacity="0.30"/><circle cx="132" cy="643" r="4.1" fill="#ff9a3c" opacity="0.42"/><circle cx="553" cy="716" r="1.4" fill="#ff9a3c" opacity="0.64"/><circle cx="139" cy="431" r="2.4" fill="#ff9a3c" opacity="0.49"/><circle cx="166" cy="469" r="3.8" fill="#ff9a3c" opacity="0.33"/><circle cx="1061" cy="823" r="2.7" fill="#ff9a3c" opacity="0.52"/><circle cx="277" cy="731" r="1.9" fill="#ff9a3c" opacity="0.32"/><circle cx="555" cy="806" r="3.7" fill="#ff9a3c" opacity="0.82"/><circle cx="991" cy="775" r="2.6" fill="#ff9a3c" opacity="0.52"/><circle cx="903" cy="609" r="4.3" fill="#ff9a3c" opacity="0.79"/><circle cx="900" cy="255" r="2.7" fill="#ff9a3c" opacity="0.49"/><circle cx="1143" cy="372" r="3.5" fill="#ff9a3c" opacity="0.42"/><circle cx="419" cy="465" r="1.6" fill="#ff9a3c" opacity="0.51"/><circle cx="800" cy="414" r="3.2" fill="#ff9a3c" opacity="0.33"/><circle cx="1118" cy="613" r="4.3" fill="#ff9a3c" opacity="0.64"/><circle cx="823" cy="698" r="3.0" fill="#ff9a3c" opacity="0.48"/><circle cx="1056" cy="485" r="3.9" fill="#ff9a3c" opacity="0.76"/><circle cx="514" cy="698" r="3.8" fill="#ff9a3c" opacity="0.36"/><circle cx="516" cy="509" r="3.9" fill="#ff9a3c" opacity="0.48"/><circle cx="68" cy="266" r="3.8" fill="#ff9a3c" opacity="0.36"/><circle cx="133" cy="428" r="4.4" fill="#ff9a3c" opacity="0.60"/><circle cx="298" cy="299" r="3.1" fill="#ff9a3c" opacity="0.33"/><circle cx="1035" cy="759" r="1.5" fill="#ff9a3c" opacity="0.73"/><circle cx="774" cy="802" r="1.3" fill="#ff9a3c" opacity="0.55"/><circle cx="968" cy="465" r="3.0" fill="#ff9a3c" opacity="0.43"/><circle cx="1157" cy="563" r="3.0" fill="#ff9a3c" opacity="0.49"/>
  <circle cx="1007" cy="716" r="4.3" fill="#ffd9a8" opacity="0.48"/><circle cx="1114" cy="743" r="2.8" fill="#ffd9a8" opacity="0.48"/><circle cx="74" cy="789" r="2.1" fill="#ffd9a8" opacity="0.35"/><circle cx="1030" cy="470" r="2.0" fill="#ffd9a8" opacity="0.79"/><circle cx="1077" cy="312" r="1.7" fill="#ffd9a8" opacity="0.49"/><circle cx="1134" cy="484" r="1.1" fill="#ffd9a8" opacity="0.44"/><circle cx="1008" cy="535" r="2.3" fill="#ffd9a8" opacity="0.87"/><circle cx="63" cy="725" r="1.5" fill="#ffd9a8" opacity="0.41"/><circle cx="1083" cy="756" r="2.0" fill="#ffd9a8" opacity="0.37"/><circle cx="542" cy="711" r="4.0" fill="#ffd9a8" opacity="0.53"/><circle cx="71" cy="582" r="1.3" fill="#ffd9a8" opacity="0.64"/><circle cx="720" cy="807" r="3.5" fill="#ffd9a8" opacity="0.55"/><circle cx="431" cy="799" r="2.5" fill="#ffd9a8" opacity="0.77"/><circle cx="701" cy="285" r="3.2" fill="#ffd9a8" opacity="0.38"/>
  
  <g transform="translate(600 460) scale(2.1)">
    <path d="M-120 30 L90 -28 Q120 -34 120 -10 Q120 12 92 18 L-110 50 Z"
            fill="none" stroke="url(#hotedge)" stroke-width="10" opacity="0.85"
            filter="url(#soft)"/>
    <path d="M-120 30 L90 -28 Q120 -34 120 -10 Q120 12 92 18 L-110 50 Z"
      fill="url(#steel)" stroke="#ffb066"
      stroke-width="2" />
    <path d="M-120 30 L90 -28 Q120 -34 120 -10"
      fill="none" stroke="#fff3e0"
      stroke-width="1.6" opacity="0.95" />
    <rect x="-180" y="20" width="70" height="26" rx="10" fill="#241712" />
    <rect x="-180" y="20" width="70" height="13" rx="10" fill="#3a2a1a" />
  </g>
  <text x="600" y="770" text-anchor="middle" font-family="Georgia, serif"
    font-size="56" fill="#f6ead6" opacity="0.94">Kockkniv</text>
  <text x="600" y="824" text-anchor="middle" font-family="Arial, sans-serif"
    font-size="26" fill="#ffb98a" opacity="0.85">Efter slipning</text>
</svg>