<svg xmlns="http://www.w3.org/2000/svg" viewBox="0 0 1200 900" width="1200" height="900">
  <defs>
    <linearGradient id="bg" x1="0" y1="0" x2="0.3" y2="1">
      <stop offset="0" stop-color="#140a05"/>
      <stop offset="0.55" stop-color="#0c0805"/>
      <stop offset="1" stop-color="#080709"/>
    </linearGradient>
    <linearGradient id="steel" x1="0" y1="0" x2="0" y2="1">
      <stop offset="0" stop-color="#eef1f5"/>
      <stop offset="0.5" stop-color="#aab4c0"/>
      <stop offset="1" stop-color="#79838f"/>
    </linearGradient>
    <linearGradient id="hotedge" x1="0" y1="0" x2="1" y2="0">
      <stop offset="0" stop-color="#fff3d6"/>
      <stop offset="0.5" stop-color="#ff8a2b"/>
      <stop offset="1" stop-color="#f2480c"/>
    </linearGradient>
    <radialGradient id="forge" cx="0.5" cy="1" r="0.75">
      <stop offset="0" stop-color="#ff6a1a" stop-opacity="0.5"/>
      <stop offset="0.4" stop-color="#f2480c" stop-opacity="0.22"/>
      <stop offset="1" stop-color="#f2480c" stop-opacity="0"/>
    </radialGradient>
    <radialGradient id="topglow" cx="0.5" cy="0.1" r="0.6">
      <stop offset="0" stop-color="#FF8A2B" stop-opacity="0.22"/>
      <stop offset="1" stop-color="#FF8A2B" stop-opacity="0"/>
    </radialGradient>
    <filter id="soft"><feGaussianBlur stdDeviation="6"/></filter>
  </defs>
  <rect width="1200" height="900" fill="url(#bg)"/>
  <rect width="1200" height="900" fill="url(#forge)"/>
  <rect width="1200" height="900" fill="url(#topglow)"/>
  <circle cx="338" cy="295" r="3.8" fill="#ff9a3c" opacity="0.48"/><circle cx="817" cy="811" r="1.4" fill="#ff9a3c" opacity="0.44"/><circle cx="980" cy="341" r="1.5" fill="#ff9a3c" opacity="0.82"/><circle cx="990" cy="741" r="2.7" fill="#ff9a3c" opacity="0.63"/><circle cx="832" cy="317" r="3.6" fill="#ff9a3c" opacity="0.41"/><circle cx="180" cy="750" r="3.4" fill="#ff9a3c" opacity="0.31"/><circle cx="264" cy="632" r="1.5" fill="#ff9a3c" opacity="0.50"/><circle cx="536" cy="801" r="3.0" fill="#ff9a3c" opacity="0.62"/><circle cx="936" cy="471" r="2.1" fill="#ff9a3c" opacity="0.38"/><circle cx="161" cy="368" r="2.5" fill="#ff9a3c" opacity="0.47"/><circle cx="729" cy="262" r="1.9" fill="#ff9a3c" opacity="0.88"/><circle cx="448" cy="502" r="3.4" fill="#ff9a3c" opacity="0.83"/><circle cx="280" cy="347" r="4.5" fill="#ff9a3c" opacity="0.36"/><circle cx="1011" cy="301" r="2.5" fill="#ff9a3c" opacity="0.38"/><circle cx="715" cy="645" r="2.6" fill="#ff9a3c" opacity="0.86"/><circle cx="221" cy="372" r="2.8" fill="#ff9a3c" opacity="0.56"/><circle cx="982" cy="718" r="3.8" fill="#ff9a3c" opacity="0.73"/><circle cx="138" cy="699" r="2.0" fill="#ff9a3c" opacity="0.87"/><circle cx="785" cy="840" r="3.4" fill="#ff9a3c" opacity="0.87"/><circle cx="242" cy="713" r="1.1" fill="#ff9a3c" opacity="0.52"/><circle cx="716" cy="464" r="4.1" fill="#ff9a3c" opacity="0.65"/><circle cx="370" cy="354" r="1.5" fill="#ff9a3c" opacity="0.49"/><circle cx="790" cy="685" r="3.8" fill="#ff9a3c" opacity="0.75"/><circle cx="850" cy="340" r="4.1" fill="#ff9a3c" opacity="0.61"/><circle cx="978" cy="511" r="3.0" fill="#ff9a3c" opacity="0.42"/><circle cx="1028" cy="435" r="3.5" fill="#ff9a3c" opacity="0.63"/><circle cx="139" cy="727" r="4.3" fill="#ff9a3c" opacity="0.55"/><circle cx="1008" cy="513" r="3.2" fill="#ff9a3c" opacity="0.46"/><circle cx="554" cy="363" r="2.8" fill="#ff9a3c" opacity="0.56"/><circle cx="584" cy="826" r="3.6" fill="#ff9a3c" opacity="0.87"/><circle cx="60" cy="760" r="4.5" fill="#ff9a3c" opacity="0.42"/><circle cx="169" cy="269" r="3.8" fill="#ff9a3c" opacity="0.32"/><circle cx="584" cy="435" r="4.4" fill="#ff9a3c" opacity="0.76"/><circle cx="135" cy="451" r="2.1" fill="#ff9a3c" opacity="0.68"/><circle cx="673" cy="553" r="2.0" fill="#ff9a3c" opacity="0.34"/><circle cx="940" cy="556" r="1.9" fill="#ff9a3c" opacity="0.64"/><circle cx="832" cy="586" r="1.9" fill="#ff9a3c" opacity="0.46"/><circle cx="466" cy="414" r="3.2" fill="#ff9a3c" opacity="0.40"/>
  <circle cx="960" cy="815" r="1.5" fill="#ffd9a8" opacity="0.35"/><circle cx="1178" cy="705" r="4.5" fill="#ffd9a8" opacity="0.56"/><circle cx="311" cy="800" r="3.5" fill="#ffd9a8" opacity="0.34"/><circle cx="342" cy="404" r="3.1" fill="#ffd9a8" opacity="0.61"/><circle cx="545" cy="398" r="1.0" fill="#ffd9a8" opacity="0.74"/><circle cx="552" cy="374" r="2.8" fill="#ffd9a8" opacity="0.69"/><circle cx="612" cy="371" r="1.7" fill="#ffd9a8" opacity="0.50"/><circle cx="268" cy="602" r="1.4" fill="#ffd9a8" opacity="0.90"/><circle cx="215" cy="393" r="4.2" fill="#ffd9a8" opacity="0.55"/><circle cx="172" cy="515" r="3.4" fill="#ffd9a8" opacity="0.44"/><circle cx="1146" cy="517" r="4.3" fill="#ffd9a8" opacity="0.83"/><circle cx="101" cy="656" r="3.2" fill="#ffd9a8" opacity="0.32"/><circle cx="1021" cy="638" r="3.4" fill="#ffd9a8" opacity="0.83"/><circle cx="380" cy="543" r="1.7" fill="#ffd9a8" opacity="0.34"/>
  
  <g transform="translate(600 460) scale(2.1)">
    <path d="M-120 30 L90 -28 Q120 -34 120 -10 Q120 12 92 18 L-110 50 Z"
            fill="none" stroke="url(#hotedge)" stroke-width="10" opacity="0.85"
            filter="url(#soft)"/>
    <path d="M-120 30 L90 -28 Q120 -34 120 -10 Q120 12 92 18 L-110 50 Z"
      fill="url(#steel)" stroke="#ffb066"
      stroke-width="2" />
    <path d="M-120 30 L90 -28 Q120 -34 120 -10"
      fill="none" stroke="#fff3e0"
      stroke-width="1.6" opacity="0.95" />
    <rect x="-180" y="20" width="70" height="26" rx="10" fill="#241712" />
    <rect x="-180" y="20" width="70" height="13" rx="10" fill="#3a2a1a" />
  </g>
  <text x="600" y="770" text-anchor="middle" font-family="Georgia, serif"
    font-size="56" fill="#f6ead6" opacity="0.94">Santoku</text>
  <text x="600" y="824" text-anchor="middle" font-family="Arial, sans-serif"
    font-size="26" fill="#ffb98a" opacity="0.85">Efter slipning</text>
</svg>